<svg viewBox="0 0 90 112.5" xmlns="http://www.w3.org/2000/svg"><path d="m52.1269 52.1405c-.0743.387-.1984 1.1728-.3779 1.9458-.9942 4.2828-3.9837 5.7961-7.9719 3.9978a8.7294 8.7294 0 0 1 -4.4571-4.7208 5.051 5.051 0 0 1 -.3013-1.8167c-.0176-.6021-.0505-1.38.73-1.5223.7628-.1394 1.0394.4974 1.187 1.1432a8.1436 8.1436 0 0 0 .3107 1.2871 6.3264 6.3264 0 0 0 4.32 3.9933c2.1154.5627 3.4388-.1842 4.0161-2.3135.3-1.1048.3819-2.2676.5823-3.4007.1075-.608.19-1.384.97-1.3773.97.0083.9524.8647.99 1.5785.0138.2651.0021.5315.0021 1.2056z"/><path d="m42.7078 40.3517c0 1.1512.0278 2.3034-.0123 3.4533-.0187.5356-.1794 1.1429-.8269 1.1843-.7958.0509-1.0118-.5857-1.0781-1.2409-.0534-.5281-.0337-1.0633-.0768-1.5928-.1078-1.3228-.2434-2.6434-.3452-3.9667a4.4582 4.4582 0 0 1 .0231-1.3176c.1562-.6782.3228-1.5285 1.2508-1.43.76.0808.8081.8258.8416 1.4584.0609 1.1507.1159 2.3017.1734 3.4526z"/><path d="m47.6331 40.76c0-1.0582-.0243-2.1173.01-3.1744.0179-.5539.2339-1.0856.871-1.1414.66-.0579.9409.4426.9786 1.0046a43.0514 43.0514 0 0 1 .1518 6.61c-.0528.6086-.1682 1.3621-.9956 1.2894-.753-.0662-.8883-.7817-.9087-1.4119-.0343-1.0578-.0094-2.1174-.0094-3.1763z"/></svg>